<?xml version="1.0" encoding="UTF-8" standalone="no"?>
<!DOCTYPE svg PUBLIC "-//W3C//DTD SVG 1.1//EN"
 "http://www.w3.org/Graphics/SVG/1.1/DTD/svg11.dtd">
<!-- Generated by graphviz version 2.38.0 (20140413.2041)
 -->
<!-- Title: %3 Pages: 1 -->
<svg width="774pt" height="344pt"
 viewBox="0.00 0.00 774.00 344.00" xmlns="http://www.w3.org/2000/svg" xmlns:xlink="http://www.w3.org/1999/xlink">
<g id="graph0" class="graph" transform="scale(1 1) rotate(0) translate(134 340)">
<title>%3</title>
<polygon fill="white" stroke="none" points="-134,4 -134,-340 640,-340 640,4 -134,4"/>
<!-- idle -->
<g id="node1" class="node"><title>idle</title>
<path fill="none" stroke="black" d="M48,-324C48,-324 18,-324 18,-324 12,-324 6,-318 6,-312 6,-312 6,-300 6,-300 6,-294 12,-288 18,-288 18,-288 48,-288 48,-288 54,-288 60,-294 60,-300 60,-300 60,-312 60,-312 60,-318 54,-324 48,-324"/>
<text text-anchor="middle" x="33" y="-302.3" font-family="Times,serif" font-size="14.00">idle</text>
</g>
<!-- firstLoad -->
<g id="node2" class="node"><title>firstLoad</title>
<path fill="none" stroke="black" d="M54,-252C54,-252 12,-252 12,-252 6,-252 0,-246 0,-240 0,-240 0,-228 0,-228 0,-222 6,-216 12,-216 12,-216 54,-216 54,-216 60,-216 66,-222 66,-228 66,-228 66,-240 66,-240 66,-246 60,-252 54,-252"/>
<text text-anchor="middle" x="33" y="-230.3" font-family="Times,serif" font-size="14.00">firstLoad</text>
</g>
<!-- idle&#45;&gt;firstLoad -->
<g id="edge1" class="edge"><title>idle&#45;&gt;firstLoad</title>
<path fill="none" stroke="black" d="M33,-287.831C33,-287.831 33,-262.413 33,-262.413"/>
<polygon fill="black" stroke="black" points="36.5001,-262.413 33,-252.413 29.5001,-262.413 36.5001,-262.413"/>
<text text-anchor="middle" x="-48.5" y="-263.922" font-family="Times,serif" font-size="14.00">frameCount &gt;= staticFrames </text>
</g>
<!-- switch -->
<g id="node3" class="node"><title>switch</title>
<path fill="none" stroke="black" d="M48,-180C48,-180 18,-180 18,-180 12,-180 6,-174 6,-168 6,-168 6,-156 6,-156 6,-150 12,-144 18,-144 18,-144 48,-144 48,-144 54,-144 60,-150 60,-156 60,-156 60,-168 60,-168 60,-174 54,-180 48,-180"/>
<text text-anchor="middle" x="33" y="-158.3" font-family="Times,serif" font-size="14.00">switch</text>
</g>
<!-- firstLoad&#45;&gt;switch -->
<g id="edge2" class="edge"><title>firstLoad&#45;&gt;switch</title>
<path fill="none" stroke="black" d="M33,-215.831C33,-215.831 33,-190.413 33,-190.413"/>
<polygon fill="black" stroke="black" points="36.5001,-190.413 33,-180.413 29.5001,-190.413 36.5001,-190.413"/>
<text text-anchor="middle" x="-11" y="-191.922" font-family="Times,serif" font-size="14.00">loadedData &gt; 9 </text>
</g>
<!-- load -->
<g id="node4" class="node"><title>load</title>
<path fill="none" stroke="black" d="M48,-36C48,-36 18,-36 18,-36 12,-36 6,-30 6,-24 6,-24 6,-12 6,-12 6,-6 12,-0 18,-0 18,-0 48,-0 48,-0 54,-0 60,-6 60,-12 60,-12 60,-24 60,-24 60,-30 54,-36 48,-36"/>
<text text-anchor="middle" x="33" y="-14.3" font-family="Times,serif" font-size="14.00">load</text>
</g>
<!-- switch&#45;&gt;load -->
<g id="edge3" class="edge"><title>switch&#45;&gt;load</title>
<path fill="none" stroke="black" d="M33,-143.762C33,-143.762 33,-46.0896 33,-46.0896"/>
<polygon fill="black" stroke="black" points="36.5001,-46.0896 33,-36.0896 29.5001,-46.0897 36.5001,-46.0896"/>
</g>
<!-- calc -->
<g id="node5" class="node"><title>calc</title>
<path fill="none" stroke="black" d="M336,-36C336,-36 306,-36 306,-36 300,-36 294,-30 294,-24 294,-24 294,-12 294,-12 294,-6 300,-0 306,-0 306,-0 336,-0 336,-0 342,-0 348,-6 348,-12 348,-12 348,-24 348,-24 348,-30 342,-36 336,-36"/>
<text text-anchor="middle" x="321" y="-14.3" font-family="Times,serif" font-size="14.00">calc</text>
</g>
<!-- load&#45;&gt;calc -->
<g id="edge4" class="edge"><title>load&#45;&gt;calc</title>
<path fill="none" stroke="black" d="M60.0943,-18C60.0943,-18 283.768,-18 283.768,-18"/>
<polygon fill="black" stroke="black" points="283.768,-21.5001 293.768,-18 283.768,-14.5001 283.768,-21.5001"/>
<text text-anchor="middle" x="127.931" y="-21.8" font-family="Times,serif" font-size="14.00">loadedData &gt; 9 </text>
</g>
<!-- update -->
<g id="node6" class="node"><title>update</title>
<path fill="none" stroke="black" d="M624,-180C624,-180 594,-180 594,-180 588,-180 582,-174 582,-168 582,-168 582,-156 582,-156 582,-150 588,-144 594,-144 594,-144 624,-144 624,-144 630,-144 636,-150 636,-156 636,-156 636,-168 636,-168 636,-174 630,-180 624,-180"/>
<text text-anchor="middle" x="609" y="-158.3" font-family="Times,serif" font-size="14.00">update</text>
</g>
<!-- calc&#45;&gt;update -->
<g id="edge5" class="edge"><title>calc&#45;&gt;update</title>
<path fill="none" stroke="black" d="M348.094,-18C419.788,-18 609,-18 609,-18 609,-18 609,-133.762 609,-133.762"/>
<polygon fill="black" stroke="black" points="605.5,-133.762 609,-143.762 612.5,-133.762 605.5,-133.762"/>
<text text-anchor="middle" x="480.428" y="-21.8" font-family="Times,serif" font-size="14.00">updatedPixels &gt; 238</text>
</g>
<!-- updateToLoad -->
<g id="node7" class="node"><title>updateToLoad</title>
<path fill="none" stroke="black" d="M356.5,-180C356.5,-180 285.5,-180 285.5,-180 279.5,-180 273.5,-174 273.5,-168 273.5,-168 273.5,-156 273.5,-156 273.5,-150 279.5,-144 285.5,-144 285.5,-144 356.5,-144 356.5,-144 362.5,-144 368.5,-150 368.5,-156 368.5,-156 368.5,-168 368.5,-168 368.5,-174 362.5,-180 356.5,-180"/>
<text text-anchor="middle" x="321" y="-158.3" font-family="Times,serif" font-size="14.00">updateToLoad</text>
</g>
<!-- update&#45;&gt;updateToLoad -->
<g id="edge6" class="edge"><title>update&#45;&gt;updateToLoad</title>
<path fill="none" stroke="black" d="M581.906,-162C581.906,-162 378.634,-162 378.634,-162"/>
<polygon fill="black" stroke="black" points="378.634,-158.5 368.634,-162 378.634,-165.5 378.634,-158.5"/>
<text text-anchor="middle" x="511.27" y="-150.8" font-family="Times,serif" font-size="14.00">loadedData &gt;= 9 </text>
<text text-anchor="middle" x="511.27" y="-135.8" font-family="Times,serif" font-size="14.00">baseAddress &lt;= 1912 </text>
</g>
<!-- switchIdle -->
<g id="node8" class="node"><title>switchIdle</title>
<path fill="none" stroke="black" d="M345.5,-324C345.5,-324 296.5,-324 296.5,-324 290.5,-324 284.5,-318 284.5,-312 284.5,-312 284.5,-300 284.5,-300 284.5,-294 290.5,-288 296.5,-288 296.5,-288 345.5,-288 345.5,-288 351.5,-288 357.5,-294 357.5,-300 357.5,-300 357.5,-312 357.5,-312 357.5,-318 351.5,-324 345.5,-324"/>
<text text-anchor="middle" x="321" y="-302.3" font-family="Times,serif" font-size="14.00">switchIdle</text>
</g>
<!-- update&#45;&gt;switchIdle -->
<g id="edge7" class="edge"><title>update&#45;&gt;switchIdle</title>
<path fill="none" stroke="black" d="M609,-180.238C609,-218.986 609,-306 609,-306 609,-306 367.768,-306 367.768,-306"/>
<polygon fill="black" stroke="black" points="367.768,-302.5 357.768,-306 367.768,-309.5 367.768,-302.5"/>
<text text-anchor="middle" x="495.265" y="-324.8" font-family="Times,serif" font-size="14.00">loadedData &gt;= 9</text>
<text text-anchor="middle" x="495.265" y="-309.8" font-family="Times,serif" font-size="14.00">baseAddress &gt; 1912</text>
</g>
<!-- updateToLoad&#45;&gt;switch -->
<g id="edge8" class="edge"><title>updateToLoad&#45;&gt;switch</title>
<path fill="none" stroke="black" d="M273.443,-162C273.443,-162 70.2119,-162 70.2119,-162"/>
<polygon fill="black" stroke="black" points="70.2119,-158.5 60.2119,-162 70.2118,-165.5 70.2119,-158.5"/>
<text text-anchor="middle" x="201.827" y="-150.8" font-family="Times,serif" font-size="14.00">baseAddress &lt;= 1912</text>
</g>
<!-- updateToLoad&#45;&gt;switchIdle -->
<g id="edge9" class="edge"><title>updateToLoad&#45;&gt;switchIdle</title>
<path fill="none" stroke="black" d="M321,-180.238C321,-180.238 321,-277.91 321,-277.91"/>
<polygon fill="black" stroke="black" points="317.5,-277.91 321,-287.91 324.5,-277.91 317.5,-277.91"/>
<text text-anchor="middle" x="263.5" y="-232.874" font-family="Times,serif" font-size="14.00">baseAddress &gt; 1912 </text>
</g>
<!-- switchIdle&#45;&gt;idle -->
<g id="edge10" class="edge"><title>switchIdle&#45;&gt;idle</title>
<path fill="none" stroke="black" d="M284.232,-306C284.232,-306 70.1181,-306 70.1181,-306"/>
<polygon fill="black" stroke="black" points="70.1182,-302.5 60.1181,-306 70.1181,-309.5 70.1182,-302.5"/>
</g>
</g>
</svg>
